<svg width="267" height="186" viewBox="0 0 267 186" fill="none" xmlns="http://www.w3.org/2000/svg">
<g filter="url(#filter0_d_373_271)">
<path d="M212 70.6044C207.257 110.178 171.922 126.416 132.032 131C97.955 128.375 56.1036 112.942 52.0631 70.6044C50.0428 21.0438 96.9587 -0.223256 132.032 2.18281C176.197 2.18281 212 25.9456 212 70.6044Z" fill="#FFA135"/>
</g>
<path d="M152.764 50.2837C145.692 51.6803 134.522 58.0101 135.962 67.3485C137.401 76.687 149.805 78.3615 156.878 76.9649C162.771 75.8011 167.33 71.2349 167.549 64.7765C174.178 65.7586 186.102 64.3203 186.102 64.3203L193.96 62.7685C197.104 62.1478 199.374 58.4919 198.826 54.9344C198.277 51.3769 195.047 48.8072 191.904 49.4279L184.046 50.9797C181.689 51.4452 171.61 54.3519 166.452 57.6615C164.314 51.6687 158.658 49.1198 152.764 50.2837Z" fill="black"/>
<path d="M102.992 77.4451C110.062 78.8548 122.469 77.2033 123.922 67.8675C125.375 58.5318 114.214 52.1812 107.144 50.7715C101.252 49.5968 95.5923 52.1351 93.4451 58.124C87.5066 54.6481 75.8614 51.4095 75.8614 51.4095L68.0056 49.8431C64.8634 49.2166 61.6295 51.7803 61.0759 55.3368C60.5223 58.8932 62.7875 62.5534 65.9297 63.1799L73.7855 64.7463C76.1422 65.2162 86.493 66.3633 92.338 65.2369C92.5476 71.6957 97.1003 76.2703 102.992 77.4451Z" fill="black"/>
<path d="M109 52.7868C111.072 53.6922 113.064 54.6905 115.047 55.7745C116.385 56.506 117.516 57.602 118.502 58.7592C118.936 59.2697 119.294 59.7849 119.603 60.3794C119.657 60.4827 119.869 60.9439 119.912 60.6793" stroke="white" stroke-linecap="round"/>
<path d="M134.191 98.3202C134.2 99.9196 134.211 101.419 134.585 102.966C135.003 104.695 135.529 106.341 136.272 107.925C136.953 109.378 137.814 110.599 138.769 111.819C139.33 112.536 139.902 113.286 140.602 113.831C141.275 114.354 142.079 114.636 142.856 114.876C143.797 115.167 144.799 115.337 145.776 115.266C147.525 115.137 149.012 113.822 150.31 112.591C151.3 111.652 151.932 110.21 152.247 108.8C152.408 108.079 152.429 107.332 152.432 106.593C152.435 105.767 152.486 104.914 152.345 104.1C152.165 103.055 151.902 102.041 151.52 101.073C151.301 100.519 151.001 100.02 150.796 99.4577C150.353 98.2474 149.763 97.0765 148.998 96.1034C148.848 95.9117 148.598 95.4322 148.308 95.0166C148.192 94.8503 148.079 94.6143 147.979 94.3853" stroke="#E53E3E" stroke-width="5" stroke-linecap="round"/>
<path d="M141.926 97.3182C141.926 98.6349 141.824 99.9834 142.194 101.28C142.71 103.089 143.6 105.118 144.817 106.746C145.153 107.196 145.615 107.523 146.03 107.925C146.162 108.053 146.752 108.403 146.321 108.297" stroke="#AE3838" stroke-width="5" stroke-linecap="round"/>
<path d="M114.535 92.1857C114.742 92.7013 115.31 93.1172 115.714 93.4237C117.263 94.5976 119.034 95.4947 120.812 96.1955C125.739 98.0569 131.304 97.7405 136.44 97.5025C141.271 96.9481 144.615 95.6273 148.703 93.5426C149.013 93.3842 149.966 92.7506 150.338 92.3546" stroke="black" stroke-width="5" stroke-linecap="round"/>
<path d="M212 70.9999C216.315 69.6117 220.178 63.864 223.594 60.962C225.912 58.9935 235 71 235 71C235 71 242.172 77.2793 243 76.5C246.219 73.4709 235 93.5 235 93.5" stroke="black" stroke-width="3" stroke-linecap="round"/>
<path d="M55.9946 85.6711C54.3507 88.1691 50.7001 89.2556 48.0476 90.3686C42.8006 92.5702 37.2875 94.7706 31.7325 96.1347C27.6359 97.1407 27.9953 77.3504 24 78.5" stroke="black" stroke-width="3" stroke-linecap="round"/>
<path d="M104 127C102.826 133.922 83.76 135.846 80 141.5C76.0486 147.442 84 158 86.5 164" stroke="black" stroke-width="3" stroke-linecap="round"/>
<path d="M166 125C166 125 165.883 133.32 168 138C170.221 142.91 173.868 145.369 177 148.459C184 153.5 191 143 195.5 136.5" stroke="black" stroke-width="3" stroke-linecap="round"/>
<path d="M141.32 59.0885C141.206 59.0945 141.107 59.1137 141.057 59.2248C140.957 59.45 140.978 59.8348 140.936 60.0802C140.923 60.1548 140.788 60.6845 140.896 60.7237C141.05 60.7797 141.202 60.8145 141.365 60.8145C141.901 60.8145 142.187 60.2252 142.521 59.891C142.661 59.7511 142.816 59.3161 142.771 59.1112C142.737 58.9578 142.059 58.8994 141.946 58.9724C141.676 59.1458 141.536 59.3341 141.413 59.6109C141.296 59.8738 141.261 60.0424 141.582 60.0424C141.718 60.0424 141.819 59.9505 141.91 59.8531C142.059 59.6939 142.234 59.5347 142.364 59.361" stroke="white" stroke-linecap="round"/>
<path d="M144 57.0334C145.828 55.7021 147.696 54.4873 149.633 53.3232C150.94 52.5376 152.457 52.1151 153.954 51.849C154.614 51.7316 155.239 51.6834 155.908 51.7168C156.024 51.7226 156.529 51.7726 156.323 51.6011" stroke="white" stroke-linecap="round"/>
<g filter="url(#filter1_f_373_271)">
<circle cx="241" cy="30" r="6" fill="#FFE30E"/>
</g>
<path d="M105.614 52.0538C105.275 52.0538 104.268 51.9799 104.268 52.5115C104.268 52.7852 104.204 52.885 104.483 52.9692C104.769 53.0556 105.253 53.0937 105.533 52.9692C105.827 52.8383 106.298 52.5533 106.014 52.1884C105.892 52.0309 105.581 52 105.398 52C104.99 52 104.762 52.2566 104.393 52.4227C104.078 52.5644 103.756 52.8287 104.27 53C104.538 53.0893 104.581 53.346 104.86 53.346C105.226 53.346 105.664 53.5224 105.979 53.1726C106.082 53.0574 105.857 52.8375 105.832 52.7269C105.797 52.5673 105.977 52.5281 105.775 52.3769" stroke="white" stroke-linecap="round"/>
<path d="M217.496 28.0984C220.152 28.0984 222.808 28.1184 225.464 28.0984C227.586 28.0825 231.89 28.4678 233.432 26.4849C233.809 26.0011 233.632 25.0943 233.632 24.5128C233.632 21.9222 235.203 19.1 236.142 16.7836C237.497 13.4381 238.295 9.48919 240.245 6.42493C240.604 5.86138 240.444 4.99829 240.444 4.3532C240.444 2.38553 240.444 5.16158 240.444 5.68787C240.444 8.36859 241.216 10.7505 241.44 13.3971C241.912 18.9567 238.992 25.9221 246.181 27.9192C248.396 28.5343 251.198 28.0984 253.492 28.0984C255.229 28.0984 250.069 27.3813 248.333 27.3813C242.02 27.3813 238.208 36.6953 236.5 41.7241C236.282 42.3662 236.142 42.9982 236.142 43.6763C236.142 43.7609 236.204 44.4333 236.062 44.4333C235.706 44.4333 235.424 42.5224 235.424 42.2819C235.424 41.5447 234.871 40.8924 234.628 40.2101C234.093 38.7136 233.707 37.1491 233.273 35.6284C232.947 34.4892 231.234 32.514 230.404 31.6841C229.12 30.4001 228.237 30.2499 226.46 30.2499C223.838 30.2499 221.319 29.6118 218.93 28.8156" stroke="#FFE30E" stroke-width="3" stroke-linecap="round"/>
<path d="M2 155.315C10.7956 155.315 18.7989 154.376 27.198 152.158C28.7868 151.738 30.2145 151.718 30.3066 150.415C30.5162 147.451 32.0892 144.255 32.9398 141.378C34.7326 135.316 36.1587 129.193 37.8404 123.113C38.4551 120.891 39.2586 122.432 39.4862 123.957C39.8889 126.654 40.2764 129.137 40.181 131.905C40.0174 136.657 40.0709 139.301 42 144C43.058 146.577 40.7891 149.424 44.9354 150.415C49.7058 151.557 57.2684 152.081 62.2339 151.259C64.4911 150.886 60.8407 152.233 60.5 152.158C58.1124 151.631 55.6893 152.22 53.2006 152.484C48.7876 152.953 43.4436 153.374 41.1319 156.077C37.6562 160.143 35.0187 164.673 33.7444 169.415C32.9685 172.303 33.5981 175.633 33.5981 178.562C33.5981 180.715 32.4201 174.345 31.7695 172.246C30.5689 168.374 31.6225 163.372 28.9901 159.943C27.2404 157.664 23.4693 156.27 20.2859 155.424C13.7745 153.693 9.68725 155.805 3.31659 155.805" stroke="#FFE30E" stroke-width="3" stroke-linecap="round"/>
<g filter="url(#filter2_f_373_271)">
<path d="M48 156C48 161.523 43.5228 166 38 166C32.4772 166 28 161.523 28 156C28 150.477 32.4772 146 38 146C43.5228 146 48 150.477 48 156Z" fill="#FFE30E"/>
</g>
<defs>
<filter id="filter0_d_373_271" x="50" y="0" width="168" height="137" filterUnits="userSpaceOnUse" color-interpolation-filters="sRGB">
<feFlood flood-opacity="0" result="BackgroundImageFix"/>
<feColorMatrix in="SourceAlpha" type="matrix" values="0 0 0 0 0 0 0 0 0 0 0 0 0 0 0 0 0 0 127 0" result="hardAlpha"/>
<feOffset dx="2" dy="2"/>
<feGaussianBlur stdDeviation="2"/>
<feComposite in2="hardAlpha" operator="out"/>
<feColorMatrix type="matrix" values="0 0 0 0 0.921569 0 0 0 0 0.588235 0 0 0 0 0.207843 0 0 0 1 0"/>
<feBlend mode="normal" in2="BackgroundImageFix" result="effect1_dropShadow_373_271"/>
<feBlend mode="normal" in="SourceGraphic" in2="effect1_dropShadow_373_271" result="shape"/>
</filter>
<filter id="filter1_f_373_271" x="215" y="4" width="52" height="52" filterUnits="userSpaceOnUse" color-interpolation-filters="sRGB">
<feFlood flood-opacity="0" result="BackgroundImageFix"/>
<feBlend mode="normal" in="SourceGraphic" in2="BackgroundImageFix" result="shape"/>
<feGaussianBlur stdDeviation="10" result="effect1_foregroundBlur_373_271"/>
</filter>
<filter id="filter2_f_373_271" x="8" y="126" width="60" height="60" filterUnits="userSpaceOnUse" color-interpolation-filters="sRGB">
<feFlood flood-opacity="0" result="BackgroundImageFix"/>
<feBlend mode="normal" in="SourceGraphic" in2="BackgroundImageFix" result="shape"/>
<feGaussianBlur stdDeviation="10" result="effect1_foregroundBlur_373_271"/>
</filter>
</defs>
</svg>
